<svg width="20" height="14" viewBox="0 0 20 19" fill="none" xmlns="http://www.w3.org/2000/svg">
<path d="M18.625 16.9688H1.375C0.960156 16.9688 0.625 17.3039 0.625 17.7188V18.5625C0.625 18.6656 0.709375 18.75 0.8125 18.75H19.1875C19.2906 18.75 19.375 18.6656 19.375 18.5625V17.7188C19.375 17.3039 19.0398 16.9688 18.625 16.9688ZM4.03984 15C4.08672 15 4.13359 14.9953 4.18047 14.9883L8.12266 14.2969C8.16953 14.2875 8.21406 14.2664 8.24688 14.2313L18.182 4.29609C18.2038 4.27441 18.221 4.24866 18.2328 4.2203C18.2445 4.19195 18.2506 4.16156 18.2506 4.13086C18.2506 4.10016 18.2445 4.06977 18.2328 4.04142C18.221 4.01306 18.2038 3.98731 18.182 3.96563L14.2867 0.0679688C14.2422 0.0234375 14.1836 0 14.1203 0C14.057 0 13.9984 0.0234375 13.9539 0.0679688L4.01875 10.0031C3.98359 10.0383 3.9625 10.0805 3.95312 10.1273L3.26172 14.0695C3.23892 14.1951 3.24707 14.3243 3.28545 14.446C3.32384 14.5677 3.39132 14.6782 3.48203 14.768C3.63672 14.918 3.83125 15 4.03984 15V15ZM5.61953 10.9125L14.1203 2.41406L15.8383 4.13203L7.3375 12.6305L5.25391 12.9984L5.61953 10.9125V10.9125Z" fill="#333333"/>
</svg>
